<svg xmlns="http://www.w3.org/2000/svg" width="21" height="21" viewBox="0 0 21 21">
    <path fill="#D8185B" fill-rule="evenodd" d="M19.916 3.197c-.347 1.678-4.625 4.151-7.456 5.788-1.01.585-1.884 1.09-2.511 1.507-1.123.747-1.749 1.676-2.144 2.537-.331.025-.68.028-.821-.013-.094-.035-.297-.255-.471-.495.54-2.218 2.083-5.289 4.677-7.667 3.439-3.15 5.568-3.862 6.789-3.862.524 0 .881.131 1.102.256.761.433.966 1.313.835 1.95zM6.306 13.763c.124.095.256.171.391.211.189.056.44.075.684.075h.03c-.048.145-.092.286-.133.418-.112.356-.264.845-.357.916-.001-.004-.068.003-.232-.082-.252-.13-.341-.543-.372-.777a3.86 3.86 0 0 1-.011-.76zM17 16.913c0 1.654-1.346 3-3 3H4c-1.654 0-3-1.346-3-3v-10c0-1.655 1.346-3 3-3h6.747c-.079.07-.153.131-.232.204-3.629 3.325-5.519 8.06-5.19 10.538.126.947.561 1.356.904 1.534.251.13.479.194.691.194a.976.976 0 0 0 .375-.074c.524-.219.706-.804.937-1.544.321-1.028.761-2.435 2.27-3.44.602-.4 1.463-.898 2.459-1.474C14.274 9.092 15.71 8.26 17 7.401v9.511zM19.574.378c-1.04-.59-3.363-.945-7.657 2.533H4c-2.2 0-4 1.8-4 4v10c0 2.201 1.8 4 4 4h10c2.2 0 4-1.799 4-4v-10c0-.065-.016-.127-.02-.192 1.529-1.115 2.695-2.254 2.915-3.32.203-.979-.125-2.342-1.321-3.02z"/>
</svg>
