<svg xmlns="http://www.w3.org/2000/svg" width="18" height="18" viewBox="0 0 18 18">
    <g fill="#8E8E8E" fill-rule="evenodd">
        <path d="M17 10h-.448a1.9 1.9 0 0 0-1.763 1.184 5.988 5.988 0 0 1-.136.319 1.894 1.894 0 0 0 .39 2.126l.321.32-1.414 1.415-.403-.403a1.919 1.919 0 0 0-1.346-.56c-.244 0-.481.046-.706.139a6.685 6.685 0 0 1-.248.095A1.898 1.898 0 0 0 10 16.42V17H8v-.737c0-.758-.464-1.45-1.183-1.761l-.073-.033a2.013 2.013 0 0 0-.829-.18c-.509 0-.986.196-1.341.55l-.524.525-1.414-1.414.603-.603c.543-.544.701-1.37.398-2.115C3.334 10.482 2.634 10 1.854 10H1V8h.854c.78 0 1.48-.483 1.787-1.242a1.936 1.936 0 0 0-.402-2.105l-.603-.603L4.05 2.636l.524.524c.355.355.832.55 1.341.55.281 0 .568-.061.829-.18l.074-.031A1.934 1.934 0 0 0 8 1.738V1h2v.579c0 .8.501 1.518 1.247 1.786.083.03.166.062.248.095.225.093.462.14.706.14.499 0 .99-.205 1.346-.561l.403-.403 1.414 1.414-.321.32a1.895 1.895 0 0 0-.39 2.127c.048.105.094.21.136.319A1.9 1.9 0 0 0 16.552 8H17v2zm0-3h-.448a.888.888 0 0 1-.832-.55 8.186 8.186 0 0 0-.159-.373.89.89 0 0 1 .189-1l.321-.32a1 1 0 0 0 0-1.414l-1.414-1.414a.999.999 0 0 0-1.414 0l-.403.403a.91.91 0 0 1-.639.268.86.86 0 0 1-.326-.064 5.984 5.984 0 0 0-.29-.112.896.896 0 0 1-.585-.845v-.58a1 1 0 0 0-1-1H8a1 1 0 0 0-1 1v.739c0 .374-.237.694-.581.844a2.234 2.234 0 0 0-.086.038 1.03 1.03 0 0 1-.418.09.89.89 0 0 1-.634-.257l-.524-.524a.997.997 0 0 0-1.414 0L1.929 3.343a1 1 0 0 0 0 1.414l.603.604c.269.268.326.668.183 1.02l-.005.012C2.565 6.75 2.239 7 1.854 7H1a1 1 0 0 0-1 1v2a1 1 0 0 0 1 1h.854c.385 0 .711.25.856.607l.005.012c.143.352.086.752-.183 1.02l-.603.604a1 1 0 0 0 0 1.414l1.414 1.414a.995.995 0 0 0 .707.293.993.993 0 0 0 .707-.293l.524-.524a.89.89 0 0 1 .634-.258c.141 0 .283.03.418.092l.086.038c.344.149.581.469.581.844V17a1 1 0 0 0 1 1h2a1 1 0 0 0 1-1v-.58c0-.375.231-.716.585-.844a5.97 5.97 0 0 0 .29-.111.842.842 0 0 1 .326-.064.91.91 0 0 1 .639.267l.403.403a.993.993 0 0 0 .707.293.995.995 0 0 0 .707-.293l1.414-1.414a1 1 0 0 0 0-1.414l-.321-.321a.89.89 0 0 1-.189-1c.056-.121.109-.246.159-.372a.89.89 0 0 1 .832-.55H17a1 1 0 0 0 1-1V8a1 1 0 0 0-1-1z"/>
        <path d="M9 12c-1.654 0-3-1.346-3-3s1.346-3 3-3 3 1.346 3 3-1.346 3-3 3m0-7a4 4 0 1 0 0 8 4 4 0 0 0 0-8"/>
    </g>
</svg>
